<svg width="376" height="658" viewBox="0 0 376 658" fill="none" xmlns="http://www.w3.org/2000/svg">
<path fill-rule="evenodd" clip-rule="evenodd" d="M375.998 0.522156H0.997803V290.683C2.33457 290.779 3.38952 291.897 3.38952 293.263C3.38952 294.629 2.33457 295.747 0.997803 295.843V322.776C3.17612 322.873 4.91239 324.676 4.91239 326.886C4.91239 329.096 3.17612 330.9 0.997803 330.997V354.752C4.0174 354.85 6.43525 357.338 6.43525 360.392C6.43525 363.446 4.0174 365.934 0.997803 366.032V386.846C4.85859 386.945 7.95812 390.117 7.95812 394.015C7.95812 397.914 4.85859 401.086 0.997803 401.184V418.823C5.69973 418.922 9.48098 422.778 9.48098 427.521C9.48098 432.263 5.69973 436.12 0.997803 436.219V450.8C6.54084 450.899 11.0039 455.44 11.0039 461.027C11.0039 466.613 6.54084 471.154 0.997803 471.253V482.895C7.38194 482.994 12.5267 488.219 12.5267 494.65C12.5267 501.081 7.38194 506.305 0.997803 506.405V514.872C8.22303 514.972 14.0496 520.881 14.0496 528.156C14.0496 535.43 8.22303 541.339 0.997803 541.439V546.849C9.06411 546.949 15.5724 553.542 15.5724 561.661C15.5724 569.78 9.06411 576.373 0.997803 576.473V578.944C9.90519 579.044 17.0953 586.321 17.0953 595.284C17.0953 603.119 11.6013 609.666 4.26876 611.257C12.4483 612.872 18.6182 620.108 18.6182 628.79C18.6182 635.768 14.6329 641.812 8.82203 644.754C14.1024 647.17 18.1096 651.902 19.5553 657.655C21.001 651.902 25.0082 647.17 30.2886 644.754C24.4777 641.812 20.4925 635.768 20.4925 628.79C20.4925 620.108 26.6623 612.872 34.8419 611.257C27.5093 609.666 22.0153 603.119 22.0153 595.284C22.0153 586.259 29.3055 578.943 38.2983 578.943C47.2911 578.943 54.5812 586.259 54.5812 595.284C54.5812 603.119 49.0872 609.666 41.7547 611.257C49.9342 612.872 56.1041 620.108 56.1041 628.79C56.1041 635.768 52.1188 641.812 46.3079 644.754C51.5883 647.17 55.5955 651.901 57.0412 657.655C58.4869 651.901 62.4941 647.17 67.7745 644.754C61.9636 641.812 57.9784 635.768 57.9784 628.79C57.9784 620.108 64.1482 612.872 72.3278 611.257C64.9952 609.666 59.5012 603.119 59.5012 595.284C59.5012 586.259 66.7913 578.943 75.7841 578.943C84.777 578.943 92.0671 586.259 92.0671 595.284C92.0671 603.119 86.5731 609.666 79.2405 611.257C87.4201 612.872 93.59 620.108 93.59 628.79C93.59 635.768 89.6047 641.812 83.7938 644.754C89.0742 647.17 93.0814 651.902 94.5271 657.655C95.9728 651.901 99.98 647.17 105.26 644.754C99.4495 641.812 95.4643 635.768 95.4643 628.79C95.4643 620.108 101.634 612.872 109.814 611.257C102.481 609.666 96.9871 603.119 96.9871 595.284C96.9871 586.259 104.277 578.943 113.27 578.943C122.263 578.943 129.553 586.259 129.553 595.284C129.553 603.119 124.059 609.666 116.726 611.257C124.906 612.872 131.076 620.108 131.076 628.79C131.076 635.768 127.091 641.812 121.28 644.754C126.56 647.17 130.567 651.902 132.013 657.655C133.459 651.902 137.466 647.17 142.746 644.754C136.935 641.812 132.95 635.768 132.95 628.79C132.95 620.108 139.12 612.872 147.3 611.257C139.967 609.666 134.473 603.119 134.473 595.284C134.473 586.259 141.763 578.943 150.756 578.943C159.749 578.943 167.039 586.259 167.039 595.284C167.039 603.119 161.545 609.666 154.212 611.257C162.392 612.872 168.562 620.108 168.562 628.79C168.562 635.768 164.577 641.812 158.766 644.754C164.046 647.17 168.053 651.902 169.499 657.655C170.945 651.902 174.952 647.17 180.232 644.754C174.421 641.812 170.436 635.768 170.436 628.79C170.436 620.108 176.606 612.872 184.785 611.257C177.453 609.666 171.959 603.119 171.959 595.284C171.959 586.259 179.249 578.943 188.242 578.943C197.235 578.943 204.525 586.259 204.525 595.284C204.525 603.119 199.031 609.666 191.698 611.257C199.878 612.872 206.048 620.108 206.048 628.79C206.048 635.768 202.062 641.812 196.252 644.754C201.532 647.17 205.539 651.902 206.985 657.655C208.431 651.902 212.438 647.17 217.718 644.754C211.907 641.812 207.922 635.768 207.922 628.79C207.922 620.108 214.092 612.872 222.271 611.257C214.939 609.666 209.445 603.119 209.445 595.284C209.445 586.259 216.735 578.943 225.728 578.943C234.721 578.943 242.011 586.259 242.011 595.284C242.011 603.119 236.517 609.666 229.184 611.257C237.364 612.872 243.534 620.108 243.534 628.79C243.534 635.768 239.548 641.812 233.737 644.754C239.018 647.17 243.025 651.902 244.471 657.655C245.916 651.902 249.924 647.17 255.204 644.754C249.393 641.812 245.408 635.768 245.408 628.79C245.408 620.108 251.578 612.872 259.757 611.257C252.425 609.666 246.931 603.119 246.931 595.284C246.931 586.259 254.221 578.943 263.214 578.943C272.207 578.943 279.497 586.259 279.497 595.284C279.497 603.119 274.003 609.666 266.67 611.257C274.85 612.872 281.019 620.108 281.019 628.79C281.019 635.768 277.034 641.812 271.223 644.754C276.504 647.17 280.511 651.902 281.957 657.655C283.402 651.901 287.409 647.17 292.69 644.754C286.879 641.812 282.894 635.768 282.894 628.79C282.894 620.108 289.064 612.872 297.243 611.257C289.911 609.666 284.417 603.119 284.417 595.284C284.417 586.259 291.707 578.943 300.7 578.943C309.692 578.943 316.983 586.259 316.983 595.284C316.983 603.119 311.488 609.666 304.156 611.257C312.336 612.872 318.505 620.108 318.505 628.79C318.505 635.768 314.52 641.812 308.709 644.754C313.99 647.17 317.997 651.902 319.443 657.655C320.888 651.902 324.895 647.17 330.176 644.754C324.365 641.812 320.38 635.768 320.38 628.79C320.38 620.108 326.55 612.872 334.729 611.257C327.397 609.666 321.903 603.119 321.903 595.284C321.903 586.259 329.193 578.943 338.185 578.943C347.178 578.943 354.468 586.259 354.468 595.284C354.468 603.119 348.974 609.666 341.642 611.257C349.821 612.872 355.991 620.108 355.991 628.79C355.991 635.768 352.006 641.812 346.195 644.754C351.476 647.17 355.483 651.902 356.928 657.655C358.374 651.902 362.381 647.17 367.662 644.754C361.851 641.812 357.866 635.768 357.866 628.79C357.866 620.108 364.035 612.872 372.215 611.257C364.882 609.666 359.388 603.119 359.388 595.284C359.388 586.259 366.679 578.943 375.671 578.943C375.78 578.943 375.889 578.944 375.998 578.946V576.471C375.889 576.473 375.78 576.474 375.671 576.474C367.52 576.474 360.911 569.842 360.911 561.661C360.911 553.48 367.52 546.848 375.671 546.848C375.78 546.848 375.889 546.849 375.998 546.852V541.436C375.889 541.439 375.78 541.44 375.671 541.44C368.361 541.44 362.434 535.492 362.434 528.156C362.434 520.819 368.361 514.871 375.671 514.871C375.78 514.871 375.889 514.872 375.998 514.875V506.402C375.889 506.405 375.781 506.406 375.671 506.406C369.202 506.406 363.957 501.143 363.957 494.65C363.957 488.157 369.202 482.893 375.671 482.893C375.781 482.893 375.889 482.895 375.998 482.898V471.249C375.889 471.253 375.781 471.255 375.671 471.255C370.043 471.255 365.48 466.675 365.48 461.027C365.48 455.378 370.043 450.799 375.671 450.799C375.781 450.799 375.889 450.8 375.998 450.804V436.215C375.889 436.219 375.781 436.221 375.671 436.221C370.884 436.221 367.003 432.326 367.003 427.521C367.003 422.716 370.884 418.821 375.671 418.821C375.781 418.821 375.889 418.823 375.998 418.827V401.179C375.89 401.184 375.781 401.187 375.671 401.187C371.725 401.187 368.526 397.976 368.526 394.015C368.526 390.055 371.725 386.844 375.671 386.844C375.781 386.844 375.89 386.846 375.998 386.851V366.026C375.89 366.032 375.781 366.035 375.671 366.035C372.566 366.035 370.048 363.509 370.048 360.392C370.048 357.275 372.566 354.749 375.671 354.749C375.781 354.749 375.89 354.752 375.998 354.758V330.988C375.89 330.997 375.781 331.001 375.671 331.001C373.407 331.001 371.571 329.159 371.571 326.886C371.571 324.614 373.407 322.772 375.671 322.772C375.781 322.772 375.89 322.776 375.998 322.784V295.829C375.891 295.842 375.782 295.849 375.671 295.849C374.248 295.849 373.094 294.692 373.094 293.263C373.094 291.835 374.248 290.677 375.671 290.677C375.782 290.677 375.891 290.684 375.998 290.697V0.522156ZM38.2983 576.474C46.45 576.474 53.0583 569.842 53.0583 561.661C53.0583 553.48 46.45 546.848 38.2983 546.848C30.1465 546.848 23.5382 553.48 23.5382 561.661C23.5382 569.842 30.1465 576.474 38.2983 576.474ZM51.5355 528.156C51.5355 535.492 45.609 541.44 38.2983 541.44C30.9875 541.44 25.0611 535.492 25.0611 528.156C25.0611 520.819 30.9875 514.871 38.2983 514.871C45.609 514.871 51.5355 520.819 51.5355 528.156ZM38.2983 506.406C44.7679 506.406 50.0126 501.143 50.0126 494.65C50.0126 488.157 44.7679 482.893 38.2983 482.893C31.8286 482.893 26.5839 488.157 26.5839 494.65C26.5839 501.143 31.8286 506.406 38.2983 506.406ZM48.4897 461.027C48.4897 466.675 43.9269 471.255 38.2983 471.255C32.6697 471.255 28.1068 466.675 28.1068 461.027C28.1068 455.378 32.6697 450.799 38.2983 450.799C43.9269 450.799 48.4897 455.378 48.4897 461.027ZM38.2983 436.221C43.0858 436.221 46.9669 432.326 46.9669 427.521C46.9669 422.716 43.0858 418.821 38.2983 418.821C33.5107 418.821 29.6297 422.716 29.6297 427.521C29.6297 432.326 33.5107 436.221 38.2983 436.221ZM45.444 394.015C45.444 397.976 42.2447 401.187 38.2983 401.187C34.3518 401.187 31.1525 397.976 31.1525 394.015C31.1525 390.055 34.3518 386.844 38.2983 386.844C42.2447 386.844 45.444 390.055 45.444 394.015ZM38.2983 366.035C41.4037 366.035 43.9212 363.509 43.9212 360.392C43.9212 357.275 41.4037 354.749 38.2983 354.749C35.1928 354.749 32.6754 357.275 32.6754 360.392C32.6754 363.509 35.1928 366.035 38.2983 366.035ZM42.3983 326.886C42.3983 329.159 40.5626 331.001 38.2983 331.001C36.0339 331.001 34.1982 329.159 34.1982 326.886C34.1982 324.614 36.0339 322.772 38.2983 322.772C40.5626 322.772 42.3983 324.614 42.3983 326.886ZM38.2983 295.849C39.7216 295.849 40.8754 294.692 40.8754 293.263C40.8754 291.835 39.7216 290.677 38.2983 290.677C36.8749 290.677 35.7211 291.835 35.7211 293.263C35.7211 294.692 36.8749 295.849 38.2983 295.849ZM75.7841 576.474C83.9359 576.474 90.5442 569.842 90.5442 561.661C90.5442 553.48 83.9359 546.848 75.7841 546.848C67.6324 546.848 61.0241 553.48 61.0241 561.661C61.0241 569.842 67.6324 576.474 75.7841 576.474ZM89.0214 528.156C89.0214 535.492 83.0949 541.44 75.7841 541.44C68.4734 541.44 62.547 535.492 62.547 528.156C62.547 520.819 68.4734 514.871 75.7841 514.871C83.0949 514.871 89.0214 520.819 89.0214 528.156ZM75.7841 506.406C82.2538 506.406 87.4985 501.143 87.4985 494.65C87.4985 488.157 82.2538 482.893 75.7841 482.893C69.3145 482.893 64.0698 488.157 64.0698 494.65C64.0698 501.143 69.3145 506.406 75.7841 506.406ZM85.9756 461.027C85.9756 466.675 81.4128 471.255 75.7841 471.255C70.1556 471.255 65.5927 466.675 65.5927 461.027C65.5927 455.378 70.1556 450.799 75.7841 450.799C81.4128 450.799 85.9756 455.378 85.9756 461.027ZM75.7842 436.221C80.5717 436.221 84.4528 432.326 84.4528 427.521C84.4528 422.716 80.5717 418.821 75.7842 418.821C70.9966 418.821 67.1155 422.716 67.1155 427.521C67.1155 432.326 70.9966 436.221 75.7842 436.221ZM82.9299 394.015C82.9299 397.976 79.7306 401.187 75.7841 401.187C71.8377 401.187 68.6384 397.976 68.6384 394.015C68.6384 390.055 71.8377 386.844 75.7841 386.844C79.7306 386.844 82.9299 390.055 82.9299 394.015ZM75.7841 366.035C78.8896 366.035 81.407 363.509 81.407 360.392C81.407 357.275 78.8896 354.749 75.7841 354.749C72.6787 354.749 70.1613 357.275 70.1613 360.392C70.1613 363.509 72.6787 366.035 75.7841 366.035ZM79.8842 326.886C79.8842 329.159 78.0485 331.001 75.7841 331.001C73.5198 331.001 71.6841 329.159 71.6841 326.886C71.6841 324.614 73.5198 322.772 75.7841 322.772C78.0485 322.772 79.8842 324.614 79.8842 326.886ZM75.7841 295.849C77.2075 295.849 78.3613 294.692 78.3613 293.263C78.3613 291.835 77.2075 290.677 75.7841 290.677C74.3608 290.677 73.207 291.835 73.207 293.263C73.207 294.692 74.3608 295.849 75.7841 295.849ZM113.27 576.474C121.422 576.474 128.03 569.842 128.03 561.661C128.03 553.48 121.422 546.848 113.27 546.848C105.118 546.848 98.51 553.48 98.51 561.661C98.51 569.842 105.118 576.474 113.27 576.474ZM126.507 528.156C126.507 535.492 120.581 541.44 113.27 541.44C105.959 541.44 100.033 535.492 100.033 528.156C100.033 520.819 105.959 514.871 113.27 514.871C120.581 514.871 126.507 520.819 126.507 528.156ZM113.27 506.406C119.74 506.406 124.984 501.143 124.984 494.65C124.984 488.157 119.74 482.893 113.27 482.893C106.8 482.893 101.556 488.157 101.556 494.65C101.556 501.143 106.8 506.406 113.27 506.406ZM123.462 461.027C123.462 466.675 118.899 471.255 113.27 471.255C107.641 471.255 103.079 466.675 103.079 461.027C103.079 455.378 107.641 450.799 113.27 450.799C118.899 450.799 123.462 455.378 123.462 461.027ZM113.27 436.221C118.058 436.221 121.939 432.326 121.939 427.521C121.939 422.716 118.058 418.821 113.27 418.821C108.483 418.821 104.601 422.716 104.601 427.521C104.601 432.326 108.483 436.221 113.27 436.221ZM120.416 394.015C120.416 397.976 117.217 401.187 113.27 401.187C109.324 401.187 106.124 397.976 106.124 394.015C106.124 390.055 109.324 386.844 113.27 386.844C117.217 386.844 120.416 390.055 120.416 394.015ZM113.27 366.035C116.375 366.035 118.893 363.509 118.893 360.392C118.893 357.275 116.375 354.749 113.27 354.749C110.165 354.749 107.647 357.275 107.647 360.392C107.647 363.509 110.165 366.035 113.27 366.035ZM117.37 326.886C117.37 329.159 115.534 331.001 113.27 331.001C111.006 331.001 109.17 329.159 109.17 326.886C109.17 324.614 111.006 322.772 113.27 322.772C115.534 322.772 117.37 324.614 117.37 326.886ZM113.27 295.849C114.693 295.849 115.847 294.692 115.847 293.263C115.847 291.835 114.693 290.677 113.27 290.677C111.847 290.677 110.693 291.835 110.693 293.263C110.693 294.692 111.847 295.849 113.27 295.849ZM150.756 576.474C158.908 576.474 165.516 569.842 165.516 561.661C165.516 553.48 158.908 546.848 150.756 546.848C142.604 546.848 135.996 553.48 135.996 561.661C135.996 569.842 142.604 576.474 150.756 576.474ZM163.993 528.156C163.993 535.492 158.067 541.44 150.756 541.44C143.445 541.44 137.519 535.492 137.519 528.156C137.519 520.819 143.445 514.871 150.756 514.871C158.067 514.871 163.993 520.819 163.993 528.156ZM150.756 506.406C157.226 506.406 162.47 501.143 162.47 494.65C162.47 488.157 157.226 482.893 150.756 482.893C144.286 482.893 139.042 488.157 139.042 494.65C139.042 501.143 144.286 506.406 150.756 506.406ZM160.947 461.027C160.947 466.675 156.385 471.255 150.756 471.255C145.127 471.255 140.564 466.675 140.564 461.027C140.564 455.378 145.127 450.799 150.756 450.799C156.385 450.799 160.947 455.378 160.947 461.027ZM150.756 436.221C155.544 436.221 159.425 432.326 159.425 427.521C159.425 422.716 155.544 418.821 150.756 418.821C145.968 418.821 142.087 422.716 142.087 427.521C142.087 432.326 145.968 436.221 150.756 436.221ZM157.902 394.015C157.902 397.976 154.702 401.187 150.756 401.187C146.809 401.187 143.61 397.976 143.61 394.015C143.61 390.055 146.809 386.844 150.756 386.844C154.702 386.844 157.902 390.055 157.902 394.015ZM150.756 366.035C153.861 366.035 156.379 363.509 156.379 360.392C156.379 357.275 153.861 354.749 150.756 354.749C147.651 354.749 145.133 357.275 145.133 360.392C145.133 363.509 147.651 366.035 150.756 366.035ZM154.856 326.886C154.856 329.159 153.02 331.001 150.756 331.001C148.492 331.001 146.656 329.159 146.656 326.886C146.656 324.614 148.492 322.772 150.756 322.772C153.02 322.772 154.856 324.614 154.856 326.886ZM150.756 295.849C152.179 295.849 153.333 294.692 153.333 293.263C153.333 291.835 152.179 290.677 150.756 290.677C149.333 290.677 148.179 291.835 148.179 293.263C148.179 294.692 149.333 295.849 150.756 295.849ZM188.242 576.474C196.394 576.474 203.002 569.842 203.002 561.661C203.002 553.48 196.394 546.848 188.242 546.848C180.09 546.848 173.482 553.48 173.482 561.661C173.482 569.842 180.09 576.474 188.242 576.474ZM201.479 528.156C201.479 535.492 195.553 541.44 188.242 541.44C180.931 541.44 175.005 535.492 175.005 528.156C175.005 520.819 180.931 514.871 188.242 514.871C195.553 514.871 201.479 520.819 201.479 528.156ZM188.242 506.406C194.712 506.406 199.956 501.143 199.956 494.65C199.956 488.157 194.712 482.893 188.242 482.893C181.772 482.893 176.528 488.157 176.528 494.65C176.528 501.143 181.772 506.406 188.242 506.406ZM198.433 461.027C198.433 466.675 193.87 471.255 188.242 471.255C182.613 471.255 178.05 466.675 178.05 461.027C178.05 455.378 182.613 450.799 188.242 450.799C193.87 450.799 198.433 455.378 198.433 461.027ZM188.242 436.221C193.029 436.221 196.911 432.326 196.911 427.521C196.911 422.716 193.029 418.821 188.242 418.821C183.454 418.821 179.573 422.716 179.573 427.521C179.573 432.326 183.454 436.221 188.242 436.221ZM195.388 394.015C195.388 397.976 192.188 401.187 188.242 401.187C184.295 401.187 181.096 397.976 181.096 394.015C181.096 390.055 184.295 386.844 188.242 386.844C192.188 386.844 195.388 390.055 195.388 394.015ZM188.242 366.035C191.347 366.035 193.865 363.509 193.865 360.392C193.865 357.275 191.347 354.749 188.242 354.749C185.136 354.749 182.619 357.275 182.619 360.392C182.619 363.509 185.136 366.035 188.242 366.035ZM192.342 326.886C192.342 329.159 190.506 331.001 188.242 331.001C185.977 331.001 184.142 329.159 184.142 326.886C184.142 324.614 185.977 322.772 188.242 322.772C190.506 322.772 192.342 324.614 192.342 326.886ZM188.242 295.849C189.665 295.849 190.819 294.692 190.819 293.263C190.819 291.835 189.665 290.677 188.242 290.677C186.819 290.677 185.665 291.835 185.665 293.263C185.665 294.692 186.819 295.849 188.242 295.849ZM225.728 576.474C233.88 576.474 240.488 569.842 240.488 561.661C240.488 553.48 233.88 546.848 225.728 546.848C217.576 546.848 210.968 553.48 210.968 561.661C210.968 569.842 217.576 576.474 225.728 576.474ZM238.965 528.156C238.965 535.492 233.038 541.44 225.728 541.44C218.417 541.44 212.491 535.492 212.491 528.156C212.491 520.819 218.417 514.871 225.728 514.871C233.038 514.871 238.965 520.819 238.965 528.156ZM225.728 506.406C232.197 506.406 237.442 501.143 237.442 494.65C237.442 488.157 232.197 482.893 225.728 482.893C219.258 482.893 214.013 488.157 214.013 494.65C214.013 501.143 219.258 506.406 225.728 506.406ZM235.919 461.027C235.919 466.675 231.356 471.255 225.728 471.255C220.099 471.255 215.536 466.675 215.536 461.027C215.536 455.378 220.099 450.799 225.728 450.799C231.356 450.799 235.919 455.378 235.919 461.027ZM225.728 436.221C230.515 436.221 234.396 432.326 234.396 427.521C234.396 422.716 230.515 418.821 225.728 418.821C220.94 418.821 217.059 422.716 217.059 427.521C217.059 432.326 220.94 436.221 225.728 436.221ZM232.874 394.015C232.874 397.976 229.674 401.187 225.728 401.187C221.781 401.187 218.582 397.976 218.582 394.015C218.582 390.055 221.781 386.844 225.728 386.844C229.674 386.844 232.874 390.055 232.874 394.015ZM225.728 366.035C228.833 366.035 231.351 363.509 231.351 360.392C231.351 357.275 228.833 354.749 225.728 354.749C222.622 354.749 220.105 357.275 220.105 360.392C220.105 363.509 222.622 366.035 225.728 366.035ZM229.828 326.886C229.828 329.159 227.992 331.001 225.728 331.001C223.463 331.001 221.628 329.159 221.628 326.886C221.628 324.614 223.463 322.772 225.728 322.772C227.992 322.772 229.828 324.614 229.828 326.886ZM225.728 295.849C227.151 295.849 228.305 294.692 228.305 293.263C228.305 291.835 227.151 290.677 225.728 290.677C224.304 290.677 223.151 291.835 223.151 293.263C223.151 294.692 224.304 295.849 225.728 295.849ZM263.214 576.474C271.365 576.474 277.974 569.842 277.974 561.661C277.974 553.48 271.365 546.848 263.214 546.848C255.062 546.848 248.454 553.48 248.454 561.661C248.454 569.842 255.062 576.474 263.214 576.474ZM276.451 528.156C276.451 535.492 270.524 541.44 263.214 541.44C255.903 541.44 249.976 535.492 249.976 528.156C249.976 520.819 255.903 514.871 263.214 514.871C270.524 514.871 276.451 520.819 276.451 528.156ZM263.214 506.406C269.683 506.406 274.928 501.143 274.928 494.65C274.928 488.157 269.683 482.893 263.214 482.893C256.744 482.893 251.499 488.157 251.499 494.65C251.499 501.143 256.744 506.406 263.214 506.406ZM273.405 461.027C273.405 466.675 268.842 471.255 263.214 471.255C257.585 471.255 253.022 466.675 253.022 461.027C253.022 455.378 257.585 450.799 263.214 450.799C268.842 450.799 273.405 455.378 273.405 461.027ZM263.214 436.221C268.001 436.221 271.882 432.326 271.882 427.521C271.882 422.716 268.001 418.821 263.214 418.821C258.426 418.821 254.545 422.716 254.545 427.521C254.545 432.326 258.426 436.221 263.214 436.221ZM270.359 394.015C270.359 397.976 267.16 401.187 263.214 401.187C259.267 401.187 256.068 397.976 256.068 394.015C256.068 390.055 259.267 386.844 263.214 386.844C267.16 386.844 270.359 390.055 270.359 394.015ZM263.214 366.035C266.319 366.035 268.837 363.509 268.837 360.392C268.837 357.275 266.319 354.749 263.214 354.749C260.108 354.749 257.591 357.275 257.591 360.392C257.591 363.509 260.108 366.035 263.214 366.035ZM267.314 326.886C267.314 329.159 265.478 331.001 263.214 331.001C260.949 331.001 259.114 329.159 259.114 326.886C259.114 324.614 260.949 322.772 263.214 322.772C265.478 322.772 267.314 324.614 267.314 326.886ZM263.214 295.849C264.637 295.849 265.791 294.692 265.791 293.263C265.791 291.835 264.637 290.677 263.214 290.677C261.79 290.677 260.637 291.835 260.637 293.263C260.637 294.692 261.79 295.849 263.214 295.849ZM300.7 576.474C308.851 576.474 315.46 569.842 315.46 561.661C315.46 553.48 308.851 546.848 300.7 546.848C292.548 546.848 285.939 553.48 285.939 561.661C285.939 569.842 292.548 576.474 300.7 576.474ZM313.937 528.156C313.937 535.492 308.01 541.44 300.7 541.44C293.389 541.44 287.462 535.492 287.462 528.156C287.462 520.819 293.389 514.871 300.7 514.871C308.01 514.871 313.937 520.819 313.937 528.156ZM300.7 506.406C307.169 506.406 312.414 501.143 312.414 494.65C312.414 488.157 307.169 482.893 300.7 482.893C294.23 482.893 288.985 488.157 288.985 494.65C288.985 501.143 294.23 506.406 300.7 506.406ZM310.891 461.027C310.891 466.675 306.328 471.255 300.7 471.255C295.071 471.255 290.508 466.675 290.508 461.027C290.508 455.378 295.071 450.799 300.7 450.799C306.328 450.799 310.891 455.378 310.891 461.027ZM300.7 436.221C305.487 436.221 309.368 432.326 309.368 427.521C309.368 422.716 305.487 418.821 300.7 418.821C295.912 418.821 292.031 422.716 292.031 427.521C292.031 432.326 295.912 436.221 300.7 436.221ZM307.845 394.015C307.845 397.976 304.646 401.187 300.7 401.187C296.753 401.187 293.554 397.976 293.554 394.015C293.554 390.055 296.753 386.844 300.7 386.844C304.646 386.844 307.845 390.055 307.845 394.015ZM300.7 366.035C303.805 366.035 306.322 363.509 306.322 360.392C306.322 357.275 303.805 354.749 300.7 354.749C297.594 354.749 295.077 357.275 295.077 360.392C295.077 363.509 297.594 366.035 300.7 366.035ZM304.8 326.886C304.8 329.159 302.964 331.001 300.7 331.001C298.435 331.001 296.6 329.159 296.6 326.886C296.6 324.614 298.435 322.772 300.7 322.772C302.964 322.772 304.8 324.614 304.8 326.886ZM300.7 295.849C302.123 295.849 303.277 294.692 303.277 293.263C303.277 291.835 302.123 290.677 300.7 290.677C299.276 290.677 298.122 291.835 298.122 293.263C298.122 294.692 299.276 295.849 300.7 295.849ZM338.185 576.474C346.337 576.474 352.946 569.842 352.946 561.661C352.946 553.48 346.337 546.848 338.185 546.848C330.034 546.848 323.425 553.48 323.425 561.661C323.425 569.842 330.034 576.474 338.185 576.474ZM351.423 528.156C351.423 535.492 345.496 541.44 338.185 541.44C330.875 541.44 324.948 535.492 324.948 528.156C324.948 520.819 330.875 514.871 338.185 514.871C345.496 514.871 351.423 520.819 351.423 528.156ZM338.185 506.406C344.655 506.406 349.9 501.143 349.9 494.65C349.9 488.157 344.655 482.893 338.185 482.893C331.716 482.893 326.471 488.157 326.471 494.65C326.471 501.143 331.716 506.406 338.185 506.406ZM348.377 461.027C348.377 466.675 343.814 471.255 338.185 471.255C332.557 471.255 327.994 466.675 327.994 461.027C327.994 455.378 332.557 450.799 338.185 450.799C343.814 450.799 348.377 455.378 348.377 461.027ZM338.185 436.221C342.973 436.221 346.854 432.326 346.854 427.521C346.854 422.716 342.973 418.821 338.185 418.821C333.398 418.821 329.517 422.716 329.517 427.521C329.517 432.326 333.398 436.221 338.185 436.221ZM345.331 394.015C345.331 397.976 342.132 401.187 338.185 401.187C334.239 401.187 331.04 397.976 331.04 394.015C331.04 390.055 334.239 386.844 338.185 386.844C342.132 386.844 345.331 390.055 345.331 394.015ZM338.185 366.035C341.291 366.035 343.808 363.509 343.808 360.392C343.808 357.275 341.291 354.749 338.185 354.749C335.08 354.749 332.563 357.275 332.563 360.392C332.563 363.509 335.08 366.035 338.185 366.035ZM342.285 326.886C342.285 329.159 340.45 331.001 338.185 331.001C335.921 331.001 334.085 329.159 334.085 326.886C334.085 324.614 335.921 322.772 338.185 322.772C340.45 322.772 342.285 324.614 342.285 326.886ZM338.185 295.849C339.609 295.849 340.763 294.692 340.763 293.263C340.763 291.835 339.609 290.677 338.185 290.677C336.762 290.677 335.608 291.835 335.608 293.263C335.608 294.692 336.762 295.849 338.185 295.849Z" fill="url(#paint0_radial)"/>
<defs>
<radialGradient id="paint0_radial" cx="0" cy="0" r="1" gradientUnits="userSpaceOnUse" gradientTransform="translate(127.998 251.562) rotate(88.8263) scale(1879.5 589.659)">
<stop stop-color="#C50308"/>
<stop offset="1" stop-color="#191919"/>
</radialGradient>
</defs>
</svg>
